<svg xmlns="http://www.w3.org/2000/svg" width="180.574" height="30" viewBox="0 0 180.574 30"><style>path{fill:#fff}</style><g transform="translate(-79.9 -69.876)"><path d="M92.564,99.217a17.869,17.869,0,0,1-12.4-4.777l-.268-.229,3.073-3.454.636.537a12.87,12.87,0,0,0,9.076,3.574c3.191,0,5.424-1.528,5.424-3.725.066-2.786-2.587-3.578-6.638-4.483-9.941-1.88-10.044-6.386-10.094-8.31L81.37,78.1c0-4.714,4.241-8.123,10.075-8.123a16,16,0,0,1,10.777,3.745l.268.217-2.88,3.628-.267-.217a12.089,12.089,0,0,0-7.981-3.025c-3.56,0-5.136,1.788-5.136,3.559,0,1.683.51,3.076,6.959,4.4C99.974,83.681,103,86.3,103,90.768c0,4.967-4.3,8.448-10.438,8.448Z" transform="translate(0 0.02)"/><path d="M113.074,98.474H108.5V70.538h4.572V98.474Z" transform="translate(5.83 0.135)"/><path d="M149.755,98.474H145.18V77.694L135.8,88.68l-9.379-10.986v20.78h-4.568V70.538h4.352l9.6,11.206,9.583-11.2,4.369-.007V98.474Z" transform="translate(8.552 0.135)"/><path d="M167.357,69.876a14.736,14.736,0,1,0,14.391,14.738A14.567,14.567,0,0,0,167.357,69.876Zm0,24.881a10.149,10.149,0,1,1,9.9-10.142A10.027,10.027,0,0,1,167.357,94.757Z" transform="translate(14.895)"/><path d="M209.532,98.474h-4.6L189.17,78.305V98.474H184.6V70.538h4.591l15.763,20.138V70.538h4.58V98.474Z" transform="translate(21.34 0.135)"/><path d="M233.011,98.482H214.633V70.538h17.722v4.576h-13.15v6h9.775v4.568h-9.775v8.232h13.806v4.565Z" transform="translate(27.462 0.135)"/></g></svg>